<?xml version="1.0" encoding="UTF-8"?>
<svg id="Layer_1" xmlns="http://www.w3.org/2000/svg" version="1.1" viewBox="0 0 32 32">
  <!-- Generator: Adobe Illustrator 30.2.1, SVG Export Plug-In . SVG Version: 2.1.1 Build 1)  -->
  <defs>
    <style>
      .st0 {
        fill: #fff;
      }

      .st1 {
        fill: #5a9b6a;
      }
    </style>
  </defs>
  <rect class="st1" width="32" height="32" rx="7" ry="7"/>
  <path class="st0" d="M15.91,24.56c-1.56,0-2.93-.35-4.1-1.06-1.18-.71-2.09-1.7-2.73-2.97-.65-1.27-.97-2.76-.97-4.46s.33-3.18.99-4.48c.66-1.3,1.61-2.32,2.85-3.05,1.24-.73,2.71-1.1,4.41-1.1,1.92,0,3.52.46,4.79,1.38,1.27.92,2.09,2.2,2.47,3.84h-3.19c-.24-.82-.7-1.46-1.4-1.92-.69-.46-1.59-.69-2.7-.69s-2.08.24-2.87.72c-.8.48-1.4,1.18-1.82,2.08-.42.91-.63,1.98-.63,3.23s.21,2.32.63,3.22c.42.9,1.01,1.58,1.79,2.05.77.47,1.68.7,2.72.7,1.55,0,2.71-.43,3.5-1.3.79-.87,1.25-2,1.4-3.38h-4.28v-2.15h7.15v9.06h-2.6l-.24-2.27c-.36.54-.78,1-1.25,1.38-.47.39-1.03.68-1.67.88-.64.2-1.38.3-2.24.3Z"/>
</svg>