<?xml version="1.0" encoding="UTF-8"?>
<svg id="Layer_1" xmlns="http://www.w3.org/2000/svg" version="1.1" viewBox="0 0 512 512">
  <!-- Generator: Adobe Illustrator 30.2.1, SVG Export Plug-In . SVG Version: 2.1.1 Build 1)  -->
  <defs>
    <style>
      .st0 {
        fill: #fff;
      }
    </style>
  </defs>
  <rect y=".16" width="512" height="512"/>
  <path class="st0" d="M254.41,400.37c-26.32,0-49.39-5.98-69.19-17.95-19.81-11.96-35.16-28.65-46.06-50.05s-16.35-46.46-16.35-75.18,5.58-53.64,16.75-75.58c11.17-21.93,27.18-39.08,48.06-51.45,20.87-12.36,45.66-18.54,74.38-18.54,32.43,0,59.35,7.78,80.76,23.33,21.4,15.55,35.29,37.16,41.68,64.81h-53.84c-3.99-13.82-11.83-24.59-23.53-32.3s-26.86-11.57-45.47-11.57-35.03,4.06-48.46,12.16c-13.43,8.11-23.67,19.81-30.71,35.1-7.05,15.29-10.57,33.44-10.57,54.44s3.52,39.08,10.57,54.24c7.04,15.15,17.08,26.66,30.11,34.5,13.02,7.84,28.32,11.76,45.86,11.76,26.05,0,45.73-7.31,59.02-21.93,13.29-14.62,21.14-33.63,23.53-57.03h-72.19v-36.29h120.44v152.75h-43.87l-3.99-38.29c-6.12,9.04-13.16,16.82-21.14,23.33-7.98,6.52-17.35,11.44-28.12,14.76s-23.33,4.99-37.69,4.99h.02Z"/>
</svg>