<?xml version="1.0" encoding="UTF-8"?>
<svg id="Layer_1" xmlns="http://www.w3.org/2000/svg" version="1.1" viewBox="0 0 663.85 76.8">
  <!-- Generator: Adobe Illustrator 30.2.1, SVG Export Plug-In . SVG Version: 2.1.1 Build 1)  -->
  <defs>
    <style>
      .st0 {
        fill: #1a1917;
      }
    </style>
  </defs>
  <path class="st0" d="M35.1,48.28h12.05c-.13,3.02-.82,5.51-2.07,7.47-1.25,1.96-2.92,3.41-5.01,4.34-2.09.93-4.54,1.4-7.37,1.4s-5.08-.43-7.13-1.3c-2.06-.87-3.82-2.2-5.3-4-1.48-1.8-2.59-4.06-3.32-6.79-.74-2.73-1.11-5.99-1.11-9.78,0-4.95.64-9.04,1.93-12.29,1.28-3.24,3.16-5.65,5.64-7.23,2.47-1.57,5.44-2.36,8.91-2.36,2.5,0,4.77.43,6.79,1.3,2.02.87,3.66,2.17,4.92,3.91,1.25,1.73,1.94,3.95,2.07,6.65l13.11-4.05c-.13-2.96-.85-5.61-2.17-7.95-1.32-2.35-3.13-4.35-5.44-6.02-2.31-1.67-5.05-2.95-8.19-3.85-3.15-.9-6.65-1.35-10.51-1.35-5.14,0-9.67.77-13.59,2.31-3.92,1.54-7.21,3.78-9.88,6.7-2.67,2.92-4.69,6.46-6.07,10.6-1.38,4.14-2.07,8.88-2.07,14.21,0,7.26,1.21,13.28,3.61,18.07,2.41,4.79,5.69,8.39,9.83,10.79,4.14,2.41,8.82,3.62,14.02,3.62,3.98,0,7.34-.68,10.07-2.02,2.73-1.35,4.96-3.33,6.7-5.93,1.73-2.6,3.11-5.83,4.14-9.68h1.73l-.19,16.28h9.64v-33.05h-25.73v10.02Z"/>
  <path class="st0" d="M106.94,22.36c-3.89-1.99-8.37-2.99-13.44-2.99s-9.36.98-13.25,2.94c-3.89,1.96-6.94,4.9-9.16,8.82-2.22,3.92-3.32,8.83-3.32,14.74s1.09,10.84,3.28,14.79c2.18,3.95,5.2,6.94,9.06,8.96,3.85,2.02,8.32,3.04,13.39,3.04s9.36-.97,13.25-2.89c3.89-1.93,6.97-4.86,9.25-8.82,2.28-3.95,3.42-8.91,3.42-14.89s-1.11-10.84-3.32-14.79c-2.22-3.95-5.27-6.92-9.16-8.91ZM104.14,55.36c-.87,2.35-2.15,4.09-3.85,5.25-1.7,1.15-3.81,1.73-6.31,1.73-3.85,0-6.88-1.41-9.06-4.24-2.18-2.83-3.28-6.97-3.28-12.43,0-3.41.45-6.28,1.35-8.63.9-2.35,2.22-4.08,3.95-5.2,1.73-1.12,3.79-1.68,6.17-1.68,2.76,0,5.04.66,6.84,1.97,1.8,1.32,3.16,3.21,4.1,5.69.93,2.48,1.4,5.48,1.4,9.01,0,3.34-.43,6.18-1.3,8.53Z"/>
  <path class="st0" d="M163.79,22.36c-3.89-1.99-8.37-2.99-13.44-2.99s-9.36.98-13.25,2.94c-3.89,1.96-6.94,4.9-9.16,8.82-2.22,3.92-3.32,8.83-3.32,14.74s1.09,10.84,3.28,14.79c2.18,3.95,5.2,6.94,9.06,8.96,3.85,2.02,8.32,3.04,13.39,3.04s9.36-.97,13.25-2.89c3.89-1.93,6.97-4.86,9.25-8.82,2.28-3.95,3.42-8.91,3.42-14.89s-1.11-10.84-3.32-14.79c-2.22-3.95-5.27-6.92-9.16-8.91ZM161,55.36c-.87,2.35-2.15,4.09-3.85,5.25-1.7,1.15-3.81,1.73-6.31,1.73-3.85,0-6.88-1.41-9.06-4.24s-3.28-6.97-3.28-12.43c0-3.41.45-6.28,1.35-8.63.9-2.35,2.22-4.08,3.95-5.2,1.73-1.12,3.79-1.68,6.17-1.68,2.76,0,5.04.66,6.84,1.97,1.8,1.32,3.16,3.21,4.1,5.69.93,2.48,1.4,5.48,1.4,9.01,0,3.34-.43,6.18-1.3,8.53Z"/>
  <path class="st0" d="M219.16,18.79c0,1.35.1,2.92.29,4.72.19,1.8.47,3.68.82,5.64.35,1.96.75,3.97,1.21,6.02h-2.22c-.83-3.28-1.97-6.08-3.42-8.43-1.45-2.34-3.29-4.13-5.54-5.35s-5.01-1.83-8.29-1.83c-4.5,0-8.26,1.13-11.27,3.37-3.02,2.25-5.3,5.36-6.84,9.35-1.54,3.99-2.31,8.55-2.31,13.69,0,5.46.87,10.18,2.6,14.17,1.74,3.98,4.19,7.07,7.37,9.25,3.18,2.18,6.89,3.28,11.13,3.28,3.02,0,5.67-.58,7.95-1.73,2.28-1.16,4.16-2.92,5.64-5.3,1.48-2.37,2.57-5.36,3.28-8.96h1.93v14.65h11.56V2.41h-13.88v16.38ZM219.16,46.93c0,1.48-.23,3.07-.68,4.77-.45,1.7-1.16,3.28-2.12,4.72-.96,1.44-2.18,2.62-3.66,3.51-1.48.9-3.28,1.35-5.4,1.35-2.25,0-4.21-.63-5.88-1.88-1.67-1.25-2.97-3.04-3.9-5.35-.93-2.31-1.4-5.01-1.4-8.09s.45-5.67,1.35-7.95c.9-2.28,2.15-4.06,3.76-5.35,1.61-1.28,3.57-1.93,5.88-1.93,1.54,0,2.96.29,4.24.87,1.28.58,2.41,1.36,3.37,2.36.96,1,1.77,2.14,2.41,3.42.64,1.29,1.14,2.59,1.49,3.91s.53,2.58.53,3.8v1.83Z"/>
  <polygon class="st0" points="304.15 55.6 303.67 55.6 285.94 7.71 265.02 7.71 265.02 71.31 278.03 71.31 277.17 21.78 278.23 21.78 297.21 71.31 308.77 71.31 328.05 21.78 329.11 21.78 328.24 71.31 341.44 71.31 341.44 7.71 321.49 7.71 304.15 55.6"/>
  <path class="st0" d="M386.11,57.34c-.48.96-1.12,1.83-1.93,2.6-.8.77-1.83,1.4-3.08,1.88-1.25.48-2.78.72-4.58.72-3.92,0-7.08-1.28-9.49-3.85-2.06-2.19-3.23-5.46-3.53-9.77l35.38-.34c.26-4.69-.08-8.85-1.01-12.48-.93-3.63-2.41-6.7-4.43-9.2-2.02-2.5-4.55-4.38-7.56-5.64-3.02-1.25-6.46-1.88-10.31-1.88s-7.55.67-10.7,2.02c-3.15,1.35-5.81,3.26-8,5.73-2.18,2.47-3.84,5.4-4.96,8.77-1.12,3.37-1.69,7.05-1.69,11.03s.59,7.68,1.78,10.89c1.19,3.21,2.91,5.91,5.16,8.09,2.25,2.19,4.99,3.85,8.24,5.01,3.24,1.15,6.95,1.73,11.13,1.73,3.47,0,6.5-.37,9.11-1.11,2.6-.74,4.83-1.8,6.7-3.18,1.86-1.38,3.36-3.02,4.48-4.92,1.12-1.89,1.97-4.03,2.55-6.41l-12.05-2.6c-.32.96-.72,1.93-1.21,2.89ZM364.95,37.73c1.03-2.48,2.47-4.35,4.34-5.64,1.86-1.28,4.01-1.93,6.46-1.93,2.06,0,3.93.51,5.64,1.54,1.7,1.03,3,2.63,3.9,4.82.54,1.3.83,2.83.88,4.57l-22.26.2c.25-1.28.59-2.48,1.04-3.57Z"/>
  <path class="st0" d="M451.64,57.34c-.1-2.31-.14-4.59-.14-6.84v-8.67c0-5.2-.77-9.46-2.31-12.77-1.54-3.31-3.87-5.75-6.99-7.32-3.12-1.57-7.15-2.36-12.09-2.36-3.08,0-5.94.32-8.58.96-2.64.64-4.98,1.62-7.03,2.94-2.06,1.32-3.81,2.94-5.25,4.86-1.45,1.93-2.55,4.21-3.32,6.84l12.24,3.76c.51-1.99,1.33-3.63,2.46-4.92,1.12-1.28,2.47-2.25,4.05-2.89,1.57-.64,3.29-.97,5.15-.97,2.76,0,4.78.64,6.07,1.93,1.28,1.28,1.93,2.83,1.93,4.63,0,1.28-.32,2.26-.96,2.94-.64.67-1.62,1.15-2.94,1.44s-3,.59-5.06.92c-3.85.58-7.29,1.25-10.31,2.02-3.02.77-5.56,1.73-7.61,2.89-2.06,1.15-3.61,2.67-4.67,4.53-1.06,1.86-1.59,4.18-1.59,6.94,0,3.15.61,5.78,1.83,7.9,1.22,2.12,2.92,3.74,5.11,4.87,2.18,1.12,4.69,1.69,7.52,1.69,3.08,0,5.83-.6,8.24-1.78,2.41-1.19,4.45-2.78,6.12-4.77,1.67-1.99,2.95-4.21,3.85-6.65h1.73c.13,2.12.3,4.23.53,6.31.22,2.09.47,3.94.72,5.54h12.24c-.19-2.31-.37-4.64-.53-6.99-.16-2.35-.29-4.68-.39-6.99ZM435.64,57.05c-1,1.22-2.09,2.23-3.28,3.03-1.19.8-2.41,1.43-3.66,1.88-1.25.45-2.49.68-3.71.68-2.06,0-3.73-.58-5.01-1.73-1.28-1.16-1.93-2.73-1.93-4.72,0-1.54.37-2.75,1.11-3.61.74-.87,1.74-1.56,2.99-2.07,1.25-.51,2.68-.93,4.29-1.25,1.61-.32,3.23-.61,4.87-.87,1.64-.25,3.23-.63,4.77-1.11.66-.21,1.28-.45,1.87-.72l.15,6.36c-.64,1.54-1.46,2.92-2.46,4.14Z"/>
  <path class="st0" d="M498.47,45.29c-1.96-1.09-4.16-1.98-6.6-2.65-2.44-.67-4.95-1.27-7.52-1.78-2.44-.51-4.56-1.01-6.36-1.49-1.8-.48-3.2-1.11-4.19-1.88-1-.77-1.49-1.77-1.49-2.99,0-1.48.75-2.67,2.27-3.57,1.51-.9,3.64-1.35,6.41-1.35,2.18,0,4.1.29,5.73.87,1.64.58,2.95,1.45,3.95,2.6,1,1.16,1.62,2.5,1.88,4.05l11.27-3.76c-.71-2.89-2.07-5.38-4.1-7.47-2.02-2.09-4.61-3.7-7.76-4.82-3.15-1.13-6.81-1.69-10.99-1.69-4.63,0-8.55.66-11.76,1.97-3.21,1.32-5.65,3.13-7.32,5.45-1.67,2.31-2.51,5.01-2.51,8.09s.66,5.38,1.98,7.28c1.32,1.9,3.02,3.42,5.11,4.58,2.09,1.15,4.37,2.06,6.84,2.7,2.47.64,4.9,1.25,7.28,1.83,2.44.45,4.53.93,6.26,1.45,1.73.51,3.05,1.12,3.95,1.83.9.71,1.35,1.67,1.35,2.89,0,1.61-.8,2.84-2.41,3.71-1.61.87-3.89,1.3-6.84,1.3-2.76,0-5.13-.37-7.08-1.11-1.96-.73-3.52-1.72-4.67-2.94-1.16-1.22-1.86-2.54-2.12-3.95l-10.6,4.34c.39,2.12,1.19,4.03,2.41,5.73,1.22,1.7,2.83,3.16,4.82,4.38,1.99,1.22,4.37,2.15,7.13,2.79,2.76.64,5.84.97,9.25.97,4.82,0,8.93-.64,12.34-1.93,3.4-1.28,6.01-3.13,7.81-5.54,1.8-2.41,2.7-5.28,2.7-8.62,0-2.83-.58-5.14-1.73-6.94s-2.71-3.24-4.67-4.34Z"/>
  <path class="st0" d="M545.93,43.36c-.07,2.5-.34,4.85-.82,7.04-.49,2.18-1.21,4.08-2.17,5.68-.96,1.61-2.12,2.86-3.47,3.76-1.35.9-2.92,1.35-4.72,1.35-3.02,0-5.27-1.2-6.74-3.61-1.48-2.41-2.22-6.08-2.22-11.03v-25.83h-13.88v27.56c0,8.22,1.49,14.34,4.48,18.36,2.98,4.01,7.44,6.02,13.35,6.02,3.08,0,5.73-.6,7.95-1.78,2.22-1.19,4.05-3.05,5.49-5.59,1.44-2.54,2.65-5.8,3.61-9.78h1.73l.1,15.8h11.18V20.72h-13.88v22.65Z"/>
  <path class="st0" d="M600.37,19.56c-3.34,0-6.14.64-8.38,1.93-2.25,1.29-4,3.28-5.26,5.98-1.25,2.7-2.14,6.2-2.65,10.5h-1.83l-.09-17.25h-11.47v50.59h13.97v-23.32c.38-3.08,1.14-5.7,2.27-7.85,1.12-2.15,2.58-3.81,4.38-4.96,1.8-1.15,3.95-1.73,6.46-1.73.9,0,1.93.09,3.08.29,1.15.19,2.22.51,3.18.96l.58-14.75c-.9-.19-1.69-.3-2.36-.34-.68-.03-1.3-.05-1.88-.05Z"/>
  <path class="st0" d="M644.7,54.45c-.32.96-.72,1.93-1.21,2.89-.48.96-1.12,1.83-1.93,2.6-.8.77-1.83,1.4-3.08,1.88-1.25.48-2.78.72-4.58.72-3.92,0-7.08-1.28-9.49-3.85-2.06-2.19-3.23-5.46-3.53-9.77l35.38-.34c.25-4.69-.08-8.85-1.01-12.48-.93-3.63-2.41-6.7-4.43-9.2-2.03-2.5-4.55-4.38-7.56-5.64-3.02-1.25-6.46-1.88-10.32-1.88s-7.55.67-10.69,2.02c-3.15,1.35-5.82,3.26-8,5.73-2.19,2.47-3.84,5.4-4.97,8.77-1.12,3.37-1.69,7.05-1.69,11.03s.59,7.68,1.78,10.89c1.19,3.21,2.91,5.91,5.16,8.09,2.24,2.19,4.99,3.85,8.24,5.01,3.24,1.15,6.95,1.73,11.13,1.73,3.47,0,6.5-.37,9.11-1.11,2.6-.74,4.83-1.8,6.7-3.18,1.86-1.38,3.35-3.02,4.48-4.92,1.12-1.89,1.97-4.03,2.55-6.41l-12.05-2.6ZM622.34,37.73c1.03-2.48,2.47-4.35,4.34-5.64,1.86-1.28,4.01-1.93,6.46-1.93,2.06,0,3.93.51,5.64,1.54,1.7,1.03,3,2.63,3.9,4.82.54,1.3.83,2.83.88,4.57l-22.26.2c.25-1.28.59-2.48,1.04-3.57Z"/>
</svg>