<?xml version="1.0" encoding="UTF-8"?>
<svg id="Layer_1" xmlns="http://www.w3.org/2000/svg" version="1.1" viewBox="0 0 520 520">
  <!-- Generator: Adobe Illustrator 30.2.1, SVG Export Plug-In . SVG Version: 2.1.1 Build 1)  -->
  <defs>
    <style>
      .st0 {
        opacity: .7;
        stroke-dasharray: 6 6;
      }

      .st0, .st1, .st2 {
        isolation: isolate;
      }

      .st0, .st3 {
        fill: none;
        stroke: #ff4040;
        stroke-miterlimit: 40;
        stroke-width: 1.5px;
      }

      .st2 {
        fill: #ff4040;
        font-family: DMMono-Regular, 'DM Mono';
        font-size: 16px;
        letter-spacing: .06em;
      }
    </style>
  </defs>
  <line class="st0" x1="20" y1="795.06" x2="2535.24" y2="795.06"/>
  <line class="st0" x1="20" y1="1004.56" x2="2535.24" y2="1004.56"/>
  <g>
    <line class="st3" x1="47.18" y1="795.38" x2="47.18" y2="1004.65"/>
    <line class="st3" x1="37.18" y1="795.48" x2="57.18" y2="795.48"/>
    <line class="st3" x1="37.18" y1="1004.14" x2="57.18" y2="1004.14"/>
  </g>
  <text class="st2" transform="translate(38.54 940.75) rotate(-90)"><tspan x="0" y="0">CAP H</tspan></text>
  <g>
    <line class="st3" x1="188.68" y1="1034.89" x2="216.29" y2="1034.89"/>
    <line class="st3" x1="188.68" y1="1025.69" x2="188.68" y2="1044.09"/>
    <line class="st3" x1="216.29" y1="1025.69" x2="216.29" y2="1044.09"/>
  </g>
  <text class="st2" transform="translate(173.2 1069.57)"><tspan x="0" y="0">M STEM</tspan></text>
  <g>
    <line class="st3" x1="1364.1" y1="1034.89" x2="1391.71" y2="1034.89"/>
    <line class="st3" x1="1364.1" y1="1025.69" x2="1364.1" y2="1044.09"/>
    <line class="st3" x1="1391.71" y1="1025.69" x2="1391.71" y2="1044.09"/>
  </g>
  <text class="st2" transform="translate(1348.62 1069.57)"><tspan x="0" y="0">M STEM</tspan></text>
  <g>
    <line class="st3" x1="218.12" y1="770.75" x2="317.83" y2="770.75"/>
    <line class="st3" x1="218.12" y1="758.28" x2="218.12" y2="783.21"/>
    <line class="st3" x1="317.83" y1="758.28" x2="317.83" y2="783.21"/>
  </g>
  <g>
    <line class="st3" x1="350.26" y1="770.75" x2="449.97" y2="770.75"/>
    <line class="st3" x1="350.26" y1="758.28" x2="350.26" y2="783.21"/>
    <line class="st3" x1="449.97" y1="758.28" x2="449.97" y2="783.21"/>
  </g>
  <text class="st2" transform="translate(217.54 747.59)"><tspan x="0" y="0">WORD-SPACE</tspan></text>
  <text class="st2" transform="translate(1261.12 747.59)"><tspan x="0" y="0">WORD-SPACE</tspan></text>
  <g>
    <line class="st3" x1="472.23" y1="770.75" x2="571.95" y2="770.75"/>
    <line class="st3" x1="472.23" y1="758.28" x2="472.23" y2="783.21"/>
    <line class="st3" x1="571.95" y1="758.28" x2="571.95" y2="783.21"/>
  </g>
  <g>
    <line class="st3" x1="1263.39" y1="770.75" x2="1363.1" y2="770.75"/>
    <line class="st3" x1="1263.39" y1="758.28" x2="1263.39" y2="783.21"/>
    <line class="st3" x1="1363.1" y1="758.28" x2="1363.1" y2="783.21"/>
  </g>
  <g id="frame">
    <path d="M468.5,1098.25H71.5v-397h397v397ZM88.57,1081.17h362.85v-362.85H88.57v362.85Z"/>
  </g>
  <g id="tick-right">
    <rect x="319.12" y="794.57" width="29.35" height="210.35"/>
  </g>
  <g id="tick-right1" data-name="tick-right">
    <rect x="187.71" y="794.57" width="29.35" height="210.35"/>
  </g>
  <line class="st0" x1="20" y1="155.81" x2="500" y2="155.81"/>
  <line class="st0" x1="20" y1="365.32" x2="500" y2="365.32"/>
  <g>
    <line class="st3" x1="47.18" y1="156.14" x2="47.18" y2="365.4"/>
    <line class="st3" x1="37.18" y1="156.24" x2="57.18" y2="156.24"/>
    <line class="st3" x1="37.18" y1="364.89" x2="57.18" y2="364.89"/>
  </g>
  <text class="st2" transform="translate(38.54 301.5) rotate(-90)"><tspan x="0" y="0">CAP H</tspan></text>
  <g>
    <line class="st3" x1="188.68" y1="395.64" x2="216.29" y2="395.64"/>
    <line class="st3" x1="188.68" y1="386.44" x2="188.68" y2="404.85"/>
    <line class="st3" x1="216.29" y1="386.44" x2="216.29" y2="404.85"/>
  </g>
  <text class="st2" transform="translate(173.2 430.33)"><tspan x="0" y="0">M STEM</tspan></text>
  <g>
    <line class="st3" x1="218.12" y1="131.5" x2="317.83" y2="131.5"/>
    <line class="st3" x1="218.12" y1="119.04" x2="218.12" y2="143.96"/>
    <line class="st3" x1="317.83" y1="119.04" x2="317.83" y2="143.96"/>
  </g>
  <g>
    <line class="st3" x1="350.26" y1="131.5" x2="449.97" y2="131.5"/>
    <line class="st3" x1="350.26" y1="119.04" x2="350.26" y2="143.96"/>
    <line class="st3" x1="449.97" y1="119.04" x2="449.97" y2="143.96"/>
  </g>
  <text class="st2" transform="translate(217.54 108.34)"><tspan x="0" y="0">WORD-SPACE</tspan></text>
  <g id="frame1" data-name="frame">
    <path d="M468.5,459H71.5V62h397v397ZM88.57,441.92h362.85V79.07H88.57v362.85Z"/>
  </g>
  <g id="tick-right2" data-name="tick-right">
    <rect x="319.12" y="155.32" width="29.35" height="210.35"/>
  </g>
  <g id="tick-right3" data-name="tick-right">
    <rect x="187.71" y="155.32" width="29.35" height="210.35"/>
  </g>
  <g class="st1">
    <path d="M666.77,1004.89c-18.94,0-35.49-4.3-49.65-12.92-14.16-8.61-25.16-20.66-33.01-36.16-7.85-15.5-11.76-33.58-11.76-54.24s3.97-38.55,11.91-54.24c7.93-15.68,19.32-27.98,34.15-36.88,14.82-8.89,32.38-13.34,52.66-13.34,22.77,0,41.8,5.5,57.11,16.5,15.31,11.01,25.16,26.26,29.56,45.78h-32.71c-2.87-11.09-8.9-19.85-18.08-26.26-9.18-6.41-21.24-9.61-36.16-9.61s-26.45,3.15-36.88,9.47c-10.43,6.31-18.42,15.31-23.96,26.97-5.55,11.67-8.33,25.54-8.33,41.61s2.77,30.23,8.33,41.9c5.55,11.67,13.39,20.57,23.53,26.69,10.14,6.13,21.81,9.18,35.01,9.18,20.28,0,35.53-5.83,45.78-17.5,10.23-11.67,16.21-27.26,17.94-46.78h-55.39v-22.09h84.37v108.48h-26.12l-2.58-30.71c-4.6,7.46-9.9,13.73-15.93,18.79-6.03,5.07-13.06,8.9-21.1,11.48-8.03,2.59-17.6,3.88-28.7,3.88Z"/>
    <path d="M856.46,1004.89c-13.59,0-25.78-3.16-36.59-9.47-10.81-6.32-19.33-15.16-25.54-26.55-6.22-11.38-9.33-24.53-9.33-39.46s3.16-28.65,9.47-40.04c6.32-11.38,14.92-20.23,25.83-26.54,10.91-6.32,23.14-9.47,36.73-9.47s26.02,3.15,36.74,9.47c10.71,6.31,19.18,15.12,25.4,26.4,6.21,11.29,9.32,24.59,9.32,39.89s-3.11,28.6-9.32,39.89c-6.22,11.29-14.78,20.09-25.68,26.4-10.91,6.31-23.25,9.47-37.02,9.47ZM856.46,980.21c7.84,0,14.97-1.91,21.38-5.74,6.41-3.82,11.57-9.52,15.5-17.08,3.92-7.56,5.89-16.97,5.89-28.27s-1.92-20.71-5.74-28.27c-3.83-7.56-8.95-13.24-15.36-17.07-6.41-3.82-13.44-5.74-21.1-5.74s-14.73,1.92-21.24,5.74c-6.5,3.83-11.72,9.52-15.64,17.07-3.92,7.56-5.88,16.98-5.88,28.27s1.96,20.71,5.88,28.27c3.92,7.56,9.08,13.25,15.5,17.08,6.41,3.83,13.34,5.74,20.8,5.74Z"/>
    <path d="M1021.2,1004.89c-13.59,0-25.78-3.16-36.59-9.47-10.81-6.32-19.33-15.16-25.54-26.55-6.22-11.38-9.32-24.53-9.32-39.46s3.15-28.65,9.47-40.04c6.31-11.38,14.92-20.23,25.82-26.54,10.91-6.32,23.15-9.47,36.74-9.47s26.02,3.15,36.73,9.47c10.71,6.31,19.18,15.12,25.4,26.4,6.22,11.29,9.33,24.59,9.33,39.89s-3.11,28.6-9.33,39.89c-6.22,11.29-14.78,20.09-25.68,26.4-10.91,6.31-23.24,9.47-37.02,9.47ZM1021.2,980.21c7.84,0,14.96-1.91,21.38-5.74,6.41-3.82,11.58-9.52,15.5-17.08,3.92-7.56,5.88-16.97,5.88-28.27s-1.92-20.71-5.74-28.27c-3.83-7.56-8.94-13.24-15.35-17.07-6.42-3.82-13.45-5.74-21.1-5.74s-14.74,1.92-21.24,5.74c-6.51,3.83-11.72,9.52-15.64,17.07-3.92,7.56-5.89,16.98-5.89,28.27s1.96,20.71,5.89,28.27c3.92,7.56,9.08,13.25,15.5,17.08,6.41,3.83,13.35,5.74,20.81,5.74Z"/>
    <path d="M1184.2,1004.89c-13.78,0-25.93-3.3-36.45-9.9-10.52-6.6-18.7-15.59-24.53-26.97-5.84-11.38-8.75-24.35-8.75-38.89s2.91-27.74,8.75-39.03c5.83-11.29,14.06-20.23,24.68-26.83,10.62-6.6,22.81-9.9,36.59-9.9,11.29,0,21.24,2.25,29.85,6.74,8.61,4.5,15.3,10.86,20.09,19.08v-84.37h28.7v206.63h-25.82l-2.87-22.39c-2.87,4.4-6.6,8.57-11.19,12.48-4.59,3.92-10.14,7.13-16.65,9.62-6.5,2.48-13.97,3.73-22.38,3.73ZM1188.79,979.92c8.99,0,16.93-2.11,23.82-6.32,6.88-4.2,12.2-10.14,15.93-17.79,3.73-7.65,5.59-16.55,5.59-26.69s-1.86-18.99-5.59-26.55c-3.73-7.56-9.04-13.49-15.93-17.79-6.89-4.31-14.83-6.46-23.82-6.46s-16.36,2.15-23.24,6.46c-6.89,4.3-12.25,10.24-16.07,17.79-3.83,7.56-5.74,16.41-5.74,26.55s1.91,19.04,5.74,26.69c3.82,7.65,9.18,13.59,16.07,17.79,6.88,4.21,14.64,6.32,23.24,6.32Z"/>
    <path d="M1362.99,1001.44v-200.89h33.86l68.01,135.74,67.73-135.74h34.15v200.89h-28.7v-150.67l-62.28,122.54h-22.1l-61.99-122.26v150.38h-28.7Z"/>
    <path d="M1665.18,1004.89c-13.78,0-26.02-3.16-36.74-9.47-10.71-6.32-19.08-15.11-25.11-26.4-6.03-11.29-9.04-24.39-9.04-39.32s3.01-28.65,9.04-40.04c6.03-11.38,14.4-20.28,25.11-26.69,10.71-6.41,23.15-9.61,37.31-9.61s26.3,3.15,36.45,9.47c10.14,6.31,17.98,14.68,23.54,25.11,5.55,10.43,8.32,21.96,8.32,34.58,0,1.92-.05,3.98-.14,6.17-.1,2.2-.25,4.64-.43,7.32h-118.24v-20.37h90.11c-.57-12.06-4.59-21.47-12.05-28.27-7.46-6.79-16.75-10.19-27.84-10.19-7.85,0-15.02,1.77-21.53,5.31-6.5,3.54-11.72,8.71-15.64,15.5-3.92,6.79-5.89,15.35-5.89,25.68v8.03c0,10.72,1.96,19.76,5.89,27.12,3.92,7.37,9.13,12.92,15.64,16.65s13.59,5.59,21.24,5.59c9.18,0,16.74-2.01,22.67-6.03,5.93-4.02,10.33-9.47,13.2-16.36h28.7c-2.49,8.8-6.7,16.7-12.63,23.68-5.93,6.99-13.25,12.49-21.95,16.51-8.71,4.02-18.7,6.03-29.99,6.03Z"/>
    <path d="M1806.66,1004.89c-11.86,0-21.71-2.01-29.56-6.03s-13.68-9.42-17.5-16.21c-3.83-6.79-5.74-14.11-5.74-21.96,0-9.56,2.48-17.74,7.46-24.53,4.97-6.79,12.05-12,21.24-15.64,9.18-3.63,20.18-5.45,33.01-5.45h37.6c0-8.41-1.25-15.4-3.73-20.95-2.49-5.55-6.17-9.71-11.05-12.48-4.88-2.77-11.05-4.16-18.51-4.16-8.61,0-15.97,2.06-22.1,6.17-6.12,4.12-9.95,10.19-11.48,18.22h-28.7c1.15-10.14,4.64-18.79,10.47-25.97,5.83-7.18,13.35-12.72,22.53-16.65,9.18-3.92,18.94-5.88,29.28-5.88,13.58,0,24.97,2.39,34.15,7.17,9.18,4.79,16.11,11.53,20.81,20.24,4.68,8.71,7.03,19.08,7.03,31.14v89.54h-24.97l-2.3-24.39c-2.11,3.83-4.59,7.46-7.46,10.91-2.87,3.44-6.26,6.41-10.18,8.9-3.92,2.49-8.43,4.44-13.49,5.88s-10.67,2.15-16.79,2.15ZM1812.12,981.64c6.12,0,11.67-1.24,16.65-3.73,4.97-2.49,9.23-5.89,12.77-10.19,3.54-4.31,6.21-9.18,8.03-14.64,1.82-5.45,2.82-11.05,3.01-16.79v-.86h-34.15c-8.23,0-14.88,1-19.94,3.01s-8.75,4.74-11.05,8.18c-2.29,3.44-3.44,7.46-3.44,12.05s1.1,8.85,3.3,12.2c2.2,3.35,5.41,5.98,9.62,7.89,4.2,1.92,9.28,2.87,15.21,2.87Z"/>
    <path d="M1967.37,1004.89c-12.24,0-22.96-2.01-32.14-6.03s-16.45-9.66-21.81-16.93c-5.36-7.27-8.61-15.79-9.76-25.54h29.28c.96,4.6,2.82,8.8,5.59,12.63,2.77,3.83,6.6,6.88,11.48,9.18,4.88,2.29,10.66,3.44,17.36,3.44,6.32,0,11.53-.91,15.64-2.73,4.11-1.82,7.12-4.31,9.04-7.46,1.91-3.16,2.87-6.55,2.87-10.19,0-5.35-1.29-9.42-3.88-12.2-2.58-2.77-6.41-4.97-11.48-6.6-5.07-1.62-11.15-3.11-18.22-4.45-6.7-1.14-13.15-2.73-19.37-4.74-6.22-2.01-11.76-4.54-16.65-7.6-4.88-3.06-8.75-6.93-11.62-11.62-2.87-4.68-4.3-10.47-4.3-17.36,0-8.23,2.2-15.64,6.6-22.25,4.4-6.6,10.66-11.76,18.79-15.5,8.13-3.73,17.74-5.59,28.84-5.59,16.07,0,28.99,3.82,38.75,11.48,9.76,7.65,15.5,18.46,17.22,32.43h-27.84c-.76-6.5-3.64-11.53-8.61-15.07-4.98-3.54-11.58-5.31-19.8-5.31s-14.54,1.63-18.94,4.88c-4.4,3.25-6.6,7.56-6.6,12.91,0,3.44,1.24,6.51,3.73,9.18,2.48,2.69,6.17,4.93,11.05,6.74,4.88,1.82,10.85,3.5,17.94,5.03,10.14,1.91,19.23,4.3,27.26,7.17,8.04,2.87,14.44,7.08,19.23,12.63,4.78,5.55,7.17,13.49,7.17,23.82.19,8.99-2.06,16.93-6.74,23.82-4.69,6.89-11.29,12.25-19.8,16.07-8.52,3.82-18.61,5.74-30.28,5.74Z"/>
    <path d="M2103.97,1004.89c-11.29,0-21.09-2.29-29.42-6.89-8.32-4.59-14.74-11.48-19.23-20.66-4.5-9.18-6.74-20.76-6.74-34.72v-85.81h28.7v82.65c0,13.59,2.97,23.82,8.9,30.71,5.93,6.89,14.44,10.33,25.54,10.33,7.46,0,14.21-1.82,20.24-5.45,6.03-3.63,10.76-8.9,14.21-15.78,3.44-6.89,5.16-15.31,5.16-25.26v-77.2h28.7v144.64h-25.54l-2.01-24.68c-4.4,8.8-10.81,15.69-19.23,20.66-8.43,4.97-18.18,7.46-29.28,7.46Z"/>
    <path d="M2212.16,1001.44v-144.64h25.83l2.58,27.27c3.25-6.5,7.46-12,12.63-16.5s11.23-7.99,18.22-10.47c6.98-2.49,14.97-3.73,23.96-3.73v30.42h-10.33c-5.93,0-11.58.72-16.93,2.15-5.36,1.44-10.1,3.88-14.21,7.32-4.12,3.44-7.32,8.13-9.62,14.06-2.29,5.93-3.44,13.3-3.44,22.1v72.03h-28.7Z"/>
    <path d="M2375.45,1004.89c-13.77,0-26.02-3.16-36.73-9.47-10.72-6.32-19.09-15.11-25.11-26.4-6.03-11.29-9.04-24.39-9.04-39.32s3.01-28.65,9.04-40.04c6.03-11.38,14.39-20.28,25.11-26.69,10.71-6.41,23.14-9.61,37.31-9.61s26.3,3.15,36.45,9.47c10.14,6.31,17.98,14.68,23.53,25.11,5.55,10.43,8.33,21.96,8.33,34.58,0,1.92-.05,3.98-.15,6.17-.1,2.2-.24,4.64-.43,7.32h-118.23v-20.37h90.11c-.58-12.06-4.6-21.47-12.06-28.27-7.46-6.79-16.75-10.19-27.84-10.19-7.85,0-15.02,1.77-21.52,5.31-6.5,3.54-11.72,8.71-15.64,15.5-3.92,6.79-5.88,15.35-5.88,25.68v8.03c0,10.72,1.96,19.76,5.88,27.12,3.92,7.37,9.14,12.92,15.64,16.65s13.58,5.59,21.24,5.59c9.18,0,16.74-2.01,22.67-6.03,5.93-4.02,10.33-9.47,13.2-16.36h28.7c-2.49,8.8-6.7,16.7-12.62,23.68-5.93,6.99-13.25,12.49-21.95,16.51-8.71,4.02-18.71,6.03-29.99,6.03Z"/>
  </g>
</svg>