<?xml version="1.0" encoding="UTF-8"?>
<svg id="Layer_1" xmlns="http://www.w3.org/2000/svg" version="1.1" viewBox="0 0 32 32">
  <!-- Generator: Adobe Illustrator 30.2.1, SVG Export Plug-In . SVG Version: 2.1.1 Build 1)  -->
  <path d="M10.39,20.49c-.57,0-1.07-.07-1.49-.21-.43-.14-.76-.35-1-.64s-.35-.64-.35-1.06c0-.25.06-.49.19-.73.12-.24.31-.46.56-.66.25-.2.57-.38.97-.53l.64.7c-.38.14-.65.3-.8.49-.15.19-.23.39-.23.59s.07.38.2.52c.13.14.31.25.54.32.23.07.49.11.77.11s.52-.04.73-.11.37-.18.49-.32c.12-.14.17-.3.17-.49,0-.24-.08-.43-.25-.58-.17-.15-.5-.24-1-.27-.42-.03-.8-.08-1.12-.14-.32-.06-.59-.13-.82-.21s-.42-.17-.58-.27c-.16-.1-.29-.2-.4-.31v-.28l1.26-1.32,1.07.35-1.42,1.38.37-.7c.08.06.16.11.25.16.08.05.19.09.32.13.13.04.31.07.52.1s.5.06.84.1c.54.04.97.14,1.31.29.34.15.58.36.74.61.16.26.24.56.24.92s-.1.68-.29,1c-.2.31-.49.57-.89.77-.4.2-.91.3-1.54.3ZM10.39,15.89c-.5,0-.94-.1-1.3-.29-.36-.2-.64-.46-.83-.79s-.29-.7-.29-1.1.1-.78.29-1.1c.19-.33.47-.59.83-.79.36-.2.8-.3,1.3-.3s.94.1,1.3.3c.36.2.64.46.83.79.19.33.29.7.29,1.1s-.1.77-.29,1.1c-.19.33-.47.6-.83.79-.36.2-.79.29-1.3.29ZM10.39,14.78c.34,0,.62-.09.83-.28.21-.18.31-.45.31-.79s-.1-.61-.31-.79c-.21-.18-.48-.27-.83-.27s-.62.09-.84.27c-.22.18-.32.44-.32.79s.11.61.32.79c.22.18.5.28.84.28ZM11.39,12.71l-.28-1.06h2.48v.9l-2.21.16Z"/>
  <path d="M14.87,17.7v-6.05h1.27l.12.83c.19-.3.45-.54.76-.71.32-.17.68-.26,1.09-.26.3,0,.58.04.82.12s.46.2.65.36.34.36.46.6c.22-.34.52-.6.88-.79.36-.19.75-.29,1.18-.29.5,0,.93.1,1.28.31.35.2.62.5.8.9s.28.88.28,1.46v3.53h-1.43v-3.38c0-.51-.1-.9-.31-1.18-.21-.27-.52-.41-.93-.41-.28,0-.53.07-.74.2-.21.14-.38.33-.5.59-.12.26-.18.58-.18.95v3.22h-1.43v-3.38c0-.51-.1-.9-.31-1.18-.21-.27-.52-.41-.94-.41-.26,0-.5.07-.71.2-.21.14-.38.33-.5.59-.12.26-.18.58-.18.95v3.22h-1.44Z"/>
</svg>