<?xml version="1.0" encoding="UTF-8"?>
<svg id="Layer_1" xmlns="http://www.w3.org/2000/svg" version="1.1" viewBox="0 0 397.34 48.01">
  <!-- Generator: Adobe Illustrator 30.2.1, SVG Export Plug-In . SVG Version: 2.1.1 Build 1)  -->
  <defs>
    <style>
      .st0 {
        fill: #1a1916;
      }
    </style>
  </defs>
  <path class="st0" d="M24.38,27.54h12.24c-.38,4.31-1.7,7.76-3.96,10.34-2.26,2.58-5.63,3.87-10.11,3.87-2.92,0-5.5-.68-7.73-2.03-2.24-1.35-3.97-3.32-5.2-5.89-1.23-2.58-1.84-5.67-1.84-9.26s.61-6.61,1.84-9.19c1.22-2.58,2.99-4.57,5.29-5.96,2.3-1.39,5.02-2.09,8.15-2.09,3.3,0,5.96.71,7.99,2.12,2.03,1.42,3.36,3.35,3.99,5.8h7.23c-.97-4.31-3.15-7.68-6.53-10.11-3.38-2.43-7.59-3.65-12.62-3.65-4.48,0-8.36.98-11.63,2.95-3.28,1.97-5.79,4.68-7.55,8.15-1.75,3.47-2.63,7.46-2.63,11.98s.87,8.56,2.6,11.98c1.73,3.42,4.16,6.09,7.29,7.99,3.13,1.9,6.78,2.85,10.97,2.85,2.45,0,4.57-.28,6.34-.86,1.77-.57,3.33-1.41,4.66-2.54,1.33-1.12,2.5-2.5,3.52-4.15l.57,6.78h5.77v-23.97h-18.64v4.88Z"/>
  <path class="st0" d="M70.47,16c-2.37-1.4-5.07-2.09-8.12-2.09s-5.71.7-8.12,2.09c-2.41,1.39-4.31,3.35-5.71,5.86-1.39,2.52-2.09,5.46-2.09,8.85s.69,6.2,2.06,8.72c1.37,2.52,3.25,4.47,5.64,5.87,2.39,1.4,5.08,2.09,8.08,2.09s5.77-.7,8.18-2.09c2.41-1.4,4.3-3.34,5.67-5.83,1.37-2.49,2.06-5.43,2.06-8.81s-.69-6.32-2.06-8.81c-1.37-2.49-3.24-4.44-5.61-5.83ZM70.38,36.89c-.87,1.67-2.01,2.93-3.42,3.77-1.42.85-2.99,1.27-4.72,1.27s-3.18-.42-4.6-1.27c-1.42-.85-2.56-2.1-3.42-3.77-.87-1.67-1.3-3.75-1.3-6.25s.43-4.57,1.3-6.25c.87-1.67,2.02-2.93,3.46-3.77,1.44-.84,3-1.27,4.69-1.27s3.24.42,4.66,1.27c1.42.85,2.55,2.1,3.39,3.77.84,1.67,1.27,3.75,1.27,6.25s-.43,4.58-1.3,6.25Z"/>
  <path class="st0" d="M105.03,16c-2.37-1.4-5.07-2.09-8.12-2.09s-5.71.7-8.12,2.09c-2.41,1.39-4.31,3.35-5.71,5.86-1.39,2.52-2.09,5.46-2.09,8.85s.69,6.2,2.06,8.72c1.37,2.52,3.25,4.47,5.64,5.87,2.39,1.4,5.08,2.09,8.08,2.09s5.77-.7,8.18-2.09c2.41-1.4,4.3-3.34,5.67-5.83,1.37-2.49,2.06-5.43,2.06-8.81s-.69-6.32-2.06-8.81c-1.37-2.49-3.24-4.44-5.61-5.83ZM104.93,36.89c-.87,1.67-2.01,2.93-3.42,3.77-1.42.85-2.99,1.27-4.72,1.27s-3.18-.42-4.6-1.27c-1.42-.85-2.56-2.1-3.42-3.77-.87-1.67-1.3-3.75-1.3-6.25s.43-4.57,1.3-6.25c.87-1.67,2.02-2.93,3.46-3.77,1.44-.84,3-1.27,4.69-1.27s3.24.42,4.66,1.27c1.42.85,2.55,2.1,3.39,3.77.84,1.67,1.27,3.75,1.27,6.25s-.43,4.58-1.3,6.25Z"/>
  <path class="st0" d="M142.05,19.61c-1.06-1.82-2.54-3.22-4.44-4.22s-4.1-1.49-6.59-1.49c-3.04,0-5.74.73-8.08,2.19-2.35,1.46-4.16,3.43-5.45,5.93-1.29,2.49-1.93,5.37-1.93,8.62s.64,6.08,1.93,8.59c1.29,2.52,3.1,4.5,5.42,5.96,2.32,1.46,5.01,2.19,8.05,2.19,1.86,0,3.51-.28,4.95-.82,1.44-.55,2.66-1.26,3.68-2.12s1.84-1.78,2.47-2.76l.63,4.95h5.71V.97h-6.34v18.64ZM140.75,36.54c-.82,1.69-2,3-3.52,3.93-1.52.93-3.28,1.39-5.26,1.39s-3.61-.47-5.14-1.39c-1.52-.93-2.71-2.24-3.55-3.93-.85-1.69-1.27-3.66-1.27-5.9s.42-4.19,1.27-5.87c.84-1.67,2.03-2.98,3.55-3.93,1.52-.95,3.23-1.43,5.14-1.43s3.74.48,5.26,1.43c1.52.95,2.69,2.26,3.52,3.93.82,1.67,1.24,3.63,1.24,5.87s-.41,4.21-1.24,5.9Z"/>
  <polygon class="st0" points="189.29 32.23 174.26 2.24 166.78 2.24 166.78 46.63 173.12 46.63 173.12 13.4 186.81 40.41 191.7 40.41 205.46 13.34 205.46 46.63 211.8 46.63 211.8 2.24 204.25 2.24 189.29 32.23"/>
  <path class="st0" d="M239.88,16c-2.24-1.4-4.92-2.09-8.05-2.09s-5.88.71-8.24,2.12c-2.37,1.42-4.22,3.38-5.55,5.9-1.33,2.52-2,5.46-2,8.85s.67,6.19,2,8.69c1.33,2.49,3.18,4.44,5.55,5.83,2.37,1.4,5.07,2.09,8.12,2.09,2.49,0,4.7-.44,6.63-1.33,1.92-.89,3.54-2.1,4.85-3.65,1.31-1.54,2.24-3.29,2.79-5.23h-6.34c-.63,1.52-1.61,2.73-2.92,3.61s-2.98,1.33-5.01,1.33c-1.69,0-3.26-.41-4.69-1.24-1.44-.82-2.59-2.05-3.46-3.68-.75-1.4-1.15-3.09-1.25-5.04h24.49c.04-.59.07-1.13.1-1.62.02-.49.03-.94.03-1.36,0-2.79-.61-5.34-1.84-7.64s-2.96-4.15-5.2-5.55ZM222.36,27.67c.17-1.5.57-2.81,1.2-3.9.87-1.5,2.02-2.64,3.46-3.42,1.44-.78,3.02-1.17,4.75-1.17,2.45,0,4.5.75,6.15,2.25,1.65,1.5,2.53,3.58,2.66,6.25h-18.22Z"/>
  <path class="st0" d="M271.58,15.49c-2.03-1.06-4.54-1.58-7.55-1.58-2.28,0-4.44.43-6.47,1.3-2.03.87-3.69,2.09-4.98,3.68-1.29,1.58-2.06,3.5-2.32,5.74h6.34c.34-1.77,1.18-3.12,2.54-4.03,1.35-.91,2.98-1.36,4.88-1.36,1.65,0,3.01.31,4.09.92,1.08.61,1.89,1.53,2.44,2.76.55,1.23.82,2.77.82,4.63h-8.31c-2.83,0-5.26.4-7.29,1.2-2.03.8-3.59,1.96-4.69,3.46-1.1,1.5-1.65,3.31-1.65,5.42,0,1.74.42,3.35,1.27,4.85.85,1.5,2.13,2.69,3.87,3.58s3.91,1.33,6.53,1.33c1.35,0,2.59-.16,3.71-.48,1.12-.32,2.11-.75,2.98-1.3.87-.55,1.62-1.2,2.25-1.96.63-.76,1.18-1.56,1.65-2.41l.51,5.39h5.51v-19.78c0-2.66-.52-4.95-1.55-6.88-1.04-1.92-2.57-3.41-4.6-4.47ZM271.27,32.23c-.04,1.27-.27,2.5-.67,3.71-.4,1.21-.99,2.28-1.77,3.24-.78.95-1.72,1.7-2.82,2.25-1.1.55-2.33.82-3.68.82s-2.43-.21-3.36-.63c-.93-.42-1.64-1-2.12-1.74-.49-.74-.73-1.64-.73-2.69s.25-1.9.76-2.66c.51-.76,1.32-1.36,2.44-1.81,1.12-.44,2.59-.66,4.41-.66h7.55v.19Z"/>
  <path class="st0" d="M301.51,29.25c-1.78-.63-3.78-1.16-6.02-1.59-1.56-.34-2.88-.71-3.96-1.11-1.08-.4-1.89-.9-2.44-1.49-.55-.59-.82-1.27-.82-2.03,0-1.18.48-2.13,1.46-2.85.97-.72,2.37-1.08,4.18-1.08s3.28.39,4.38,1.17c1.1.78,1.73,1.89,1.9,3.33h6.15c-.38-3.09-1.65-5.47-3.8-7.17-2.15-1.69-5.01-2.54-8.56-2.54-2.45,0-4.58.41-6.37,1.24-1.8.82-3.18,1.96-4.15,3.42-.97,1.46-1.46,3.1-1.46,4.91,0,1.52.32,2.8.95,3.84.63,1.04,1.49,1.89,2.57,2.57,1.08.68,2.3,1.24,3.68,1.68,1.37.44,2.8.79,4.28,1.05,1.56.3,2.91.62,4.03.98,1.12.36,1.96.85,2.53,1.46.57.61.86,1.51.86,2.69,0,.8-.21,1.55-.63,2.25-.42.7-1.09,1.25-2,1.65-.91.4-2.06.6-3.46.6-1.48,0-2.76-.25-3.84-.76-1.08-.51-1.92-1.18-2.54-2.03-.61-.85-1.02-1.78-1.24-2.79h-6.47c.25,2.16.97,4.04,2.16,5.64,1.18,1.61,2.79,2.85,4.82,3.74,2.03.89,4.4,1.33,7.1,1.33s4.81-.42,6.69-1.27c1.88-.85,3.34-2.03,4.37-3.55,1.04-1.52,1.53-3.28,1.49-5.26,0-2.28-.53-4.04-1.58-5.26-1.06-1.23-2.47-2.16-4.25-2.79Z"/>
  <path class="st0" d="M333.59,31.73c0,2.2-.38,4.06-1.14,5.58-.76,1.52-1.81,2.69-3.14,3.49s-2.82,1.2-4.47,1.2c-2.45,0-4.33-.76-5.64-2.28-1.31-1.52-1.97-3.78-1.97-6.78V14.67h-6.34v18.96c0,3.09.49,5.64,1.49,7.67.99,2.03,2.41,3.55,4.25,4.57,1.84,1.01,4,1.52,6.5,1.52s4.61-.55,6.47-1.65c1.86-1.1,3.27-2.62,4.25-4.57l.44,5.45h5.64V14.67h-6.34v17.06Z"/>
  <path class="st0" d="M354.26,17.05c-1.14.99-2.07,2.21-2.79,3.65l-.57-6.02h-5.71v31.96h6.34v-15.91c0-1.94.25-3.57.76-4.88.51-1.31,1.22-2.35,2.12-3.11.91-.76,1.95-1.3,3.14-1.62s2.43-.48,3.74-.48h2.28v-6.72c-1.99,0-3.75.28-5.3.82s-2.88,1.32-4.03,2.31Z"/>
  <path class="st0" d="M392.81,21.55c-1.23-2.3-2.96-4.15-5.2-5.55-2.24-1.4-4.92-2.09-8.05-2.09s-5.88.71-8.24,2.12c-2.37,1.42-4.22,3.38-5.55,5.9-1.33,2.52-2,5.46-2,8.85s.66,6.19,2,8.69,3.18,4.44,5.55,5.83c2.37,1.4,5.07,2.09,8.11,2.09,2.49,0,4.7-.44,6.63-1.33,1.92-.89,3.54-2.1,4.85-3.65,1.31-1.54,2.24-3.29,2.79-5.23h-6.34c-.64,1.52-1.61,2.73-2.92,3.61-1.31.89-2.98,1.33-5.01,1.33-1.69,0-3.25-.41-4.69-1.24-1.44-.82-2.59-2.05-3.45-3.68-.75-1.4-1.15-3.09-1.25-5.04h24.49c.04-.59.07-1.13.09-1.62.02-.49.03-.94.03-1.36,0-2.79-.61-5.34-1.84-7.64ZM370.09,27.67c.17-1.5.57-2.81,1.2-3.9.86-1.5,2.02-2.64,3.45-3.42,1.44-.78,3.02-1.17,4.76-1.17,2.45,0,4.5.75,6.15,2.25,1.65,1.5,2.54,3.58,2.66,6.25h-18.22Z"/>
</svg>