<?xml version="1.0" encoding="UTF-8"?>
<svg id="Layer_1" xmlns="http://www.w3.org/2000/svg" version="1.1" viewBox="0 0 400.62 69.55">
  <!-- Generator: Adobe Illustrator 30.2.1, SVG Export Plug-In . SVG Version: 2.1.1 Build 1)  -->
  <defs>
    <style>
      .st0 {
        font-family: DMSans-SemiBold, 'DM Sans';
        font-size: 48px;
        font-weight: 600;
        isolation: isolate;
        letter-spacing: -.03em;
      }
    </style>
  </defs>
  <rect id="tick-right" x="42.35" y="119.37" width="4.81" height="34.5"/>
  <rect id="tick-right1" x="31.76" y="119.65" width="4.81" height="12.45"/>
  <rect id="uuid-dfca7b9d-41d8-4e8c-a481-9ec60b54fad6" x="20.8" y="119.37" width="4.81" height="34.5"/>
  <g>
    <path d="M99.53,154.03c-3.17,0-5.94-.72-8.3-2.16-2.37-1.44-4.21-3.46-5.52-6.05s-1.97-5.62-1.97-9.07.66-6.45,1.99-9.07c1.33-2.62,3.23-4.68,5.71-6.17,2.48-1.49,5.42-2.23,8.81-2.23,3.81,0,6.99.92,9.55,2.76,2.56,1.84,4.21,4.39,4.94,7.66h-5.47c-.48-1.86-1.49-3.32-3.02-4.39-1.54-1.07-3.55-1.61-6.05-1.61s-4.42.53-6.17,1.58c-1.74,1.06-3.08,2.56-4.01,4.51s-1.39,4.27-1.39,6.96.46,5.06,1.39,7.01,2.24,3.44,3.94,4.46c1.7,1.02,3.65,1.54,5.86,1.54,3.39,0,5.94-.98,7.66-2.93,1.71-1.95,2.71-4.56,3-7.82h-9.26v-3.7h14.11v18.14h-4.37l-.43-5.14c-.77,1.25-1.66,2.3-2.66,3.14-1.01.85-2.18,1.49-3.53,1.92-1.34.43-2.94.65-4.8.65h0Z"/>
    <path d="M131.06,154.03c-2.27,0-4.31-.53-6.12-1.58-1.81-1.06-3.23-2.54-4.27-4.44-1.04-1.9-1.56-4.1-1.56-6.6s.53-4.79,1.58-6.7c1.06-1.9,2.5-3.38,4.32-4.44s3.87-1.58,6.14-1.58,4.35.53,6.14,1.58c1.79,1.06,3.21,2.53,4.25,4.42s1.56,4.11,1.56,6.67-.52,4.78-1.56,6.67-2.47,3.36-4.3,4.42c-1.82,1.06-3.89,1.58-6.19,1.58h0ZM131.06,149.9c1.31,0,2.5-.32,3.58-.96,1.07-.64,1.94-1.59,2.59-2.86.66-1.26.98-2.84.98-4.73s-.32-3.46-.96-4.73c-.64-1.26-1.5-2.22-2.57-2.86s-2.25-.96-3.53-.96-2.46.32-3.55.96-1.96,1.59-2.62,2.86c-.66,1.26-.98,2.84-.98,4.73s.33,3.46.98,4.73c.66,1.26,1.52,2.22,2.59,2.86s2.23.96,3.48.96h.01Z"/>
    <path d="M158.42,154.03c-2.27,0-4.31-.53-6.12-1.58-1.81-1.06-3.23-2.54-4.27-4.44-1.04-1.9-1.56-4.1-1.56-6.6s.53-4.79,1.58-6.7c1.06-1.9,2.5-3.38,4.32-4.44s3.87-1.58,6.14-1.58,4.35.53,6.14,1.58c1.79,1.06,3.21,2.53,4.25,4.42s1.56,4.11,1.56,6.67-.52,4.78-1.56,6.67-2.47,3.36-4.3,4.42c-1.82,1.06-3.89,1.58-6.19,1.58h0ZM158.42,149.9c1.31,0,2.5-.32,3.58-.96,1.07-.64,1.94-1.59,2.59-2.86.66-1.26.98-2.84.98-4.73s-.32-3.46-.96-4.73c-.64-1.26-1.5-2.22-2.57-2.86s-2.25-.96-3.53-.96-2.46.32-3.55.96-1.96,1.59-2.62,2.86c-.66,1.26-.98,2.84-.98,4.73s.33,3.46.98,4.73c.66,1.26,1.52,2.22,2.59,2.86,1.07.64,2.23.96,3.48.96h.01Z"/>
    <path d="M185.49,154.03c-2.3,0-4.34-.55-6.1-1.66-1.76-1.1-3.13-2.61-4.1-4.51-.98-1.9-1.46-4.07-1.46-6.5s.49-4.64,1.46-6.53c.98-1.89,2.35-3.38,4.13-4.49,1.78-1.1,3.82-1.66,6.12-1.66,1.89,0,3.55.38,4.99,1.13s2.56,1.82,3.36,3.19v-14.11h4.8v34.56h-4.32l-.48-3.74c-.48.74-1.1,1.43-1.87,2.09s-1.7,1.19-2.78,1.61c-1.09.42-2.34.62-3.74.62h0ZM186.26,149.86c1.5,0,2.83-.35,3.98-1.06s2.04-1.7,2.66-2.98c.62-1.28.94-2.77.94-4.46s-.31-3.18-.94-4.44c-.62-1.26-1.51-2.26-2.66-2.98-1.15-.72-2.48-1.08-3.98-1.08s-2.74.36-3.89,1.08-2.05,1.71-2.69,2.98c-.64,1.26-.96,2.74-.96,4.44s.32,3.18.96,4.46,1.54,2.27,2.69,2.98,2.45,1.06,3.89,1.06Z"/>
    <path d="M215.01,153.45v-33.6h5.66l11.38,22.7,11.33-22.7h5.71v33.6h-4.8v-25.2l-10.42,20.5h-3.7l-10.37-20.45v25.15h-4.8,0Z"/>
    <path d="M265.36,154.03c-2.3,0-4.35-.53-6.14-1.58-1.79-1.06-3.19-2.53-4.2-4.42s-1.51-4.08-1.51-6.58.5-4.79,1.51-6.7c1.01-1.9,2.41-3.39,4.2-4.46s3.87-1.61,6.24-1.61,4.4.53,6.1,1.58c1.7,1.06,3.01,2.46,3.94,4.2.93,1.74,1.39,3.67,1.39,5.78,0,.32,0,.67-.02,1.03-.02.37-.04.78-.07,1.22h-19.78v-3.41h15.07c-.1-2.02-.77-3.59-2.02-4.73s-2.8-1.7-4.66-1.7c-1.31,0-2.51.3-3.6.89s-1.96,1.46-2.62,2.59c-.66,1.14-.98,2.57-.98,4.3v1.34c0,1.79.33,3.3.98,4.54.66,1.23,1.53,2.16,2.62,2.78s2.27.94,3.55.94c1.54,0,2.8-.34,3.79-1.01.99-.67,1.73-1.58,2.21-2.74h4.8c-.42,1.47-1.12,2.79-2.11,3.96s-2.22,2.09-3.67,2.76c-1.46.67-3.13,1.01-5.02,1.01v.02h0Z"/>
    <path d="M288.84,154.03c-1.98,0-3.63-.34-4.94-1.01s-2.29-1.58-2.93-2.71c-.64-1.14-.96-2.36-.96-3.67,0-1.6.42-2.97,1.25-4.1.83-1.14,2.02-2.01,3.55-2.62,1.54-.61,3.38-.91,5.52-.91h6.29c0-1.41-.21-2.58-.62-3.5-.42-.93-1.03-1.62-1.85-2.09-.82-.46-1.85-.7-3.1-.7-1.44,0-2.67.34-3.7,1.03-1.02.69-1.66,1.7-1.92,3.05h-4.8c.19-1.7.78-3.14,1.75-4.34.98-1.2,2.23-2.13,3.77-2.78,1.54-.66,3.17-.98,4.9-.98,2.27,0,4.18.4,5.71,1.2,1.54.8,2.7,1.93,3.48,3.38.78,1.46,1.18,3.19,1.18,5.21v14.98h-4.18l-.38-4.08c-.35.64-.77,1.25-1.25,1.82-.48.58-1.05,1.07-1.7,1.49-.66.42-1.41.74-2.26.98-.85.24-1.78.36-2.81.36h0ZM289.75,150.14c1.02,0,1.95-.21,2.78-.62.83-.42,1.54-.98,2.14-1.7.59-.72,1.04-1.54,1.34-2.45s.47-1.85.5-2.81v-.14h-5.71c-1.38,0-2.49.17-3.34.5-.85.34-1.46.79-1.85,1.37-.38.58-.58,1.25-.58,2.02s.18,1.48.55,2.04.9,1,1.61,1.32c.7.32,1.55.48,2.54.48h.02Z"/>
    <path d="M315.52,154.03c-2.05,0-3.84-.34-5.38-1.01s-2.75-1.62-3.65-2.83c-.9-1.22-1.44-2.64-1.63-4.27h4.9c.16.77.47,1.47.94,2.11.46.64,1.1,1.15,1.92,1.54.82.38,1.78.58,2.9.58,1.06,0,1.93-.15,2.62-.46.69-.3,1.19-.72,1.51-1.25s.48-1.1.48-1.7c0-.9-.22-1.58-.65-2.04s-1.07-.83-1.92-1.1-1.86-.52-3.05-.74c-1.12-.19-2.2-.46-3.24-.79-1.04-.34-1.97-.76-2.78-1.27-.82-.51-1.46-1.16-1.94-1.94s-.72-1.75-.72-2.9c0-1.38.37-2.62,1.1-3.72.74-1.1,1.78-1.97,3.14-2.59s2.97-.94,4.82-.94c2.69,0,4.85.64,6.48,1.92s2.59,3.09,2.88,5.42h-4.66c-.13-1.09-.61-1.93-1.44-2.52-.83-.59-1.94-.89-3.31-.89s-2.43.27-3.17.82c-.74.54-1.1,1.26-1.1,2.16,0,.58.21,1.09.62,1.54.42.45,1.03.82,1.85,1.13.82.3,1.82.58,3,.84,1.7.32,3.22.72,4.56,1.2s2.42,1.18,3.22,2.11,1.2,2.26,1.2,3.98c.03,1.5-.34,2.83-1.13,3.98-.78,1.15-1.89,2.05-3.31,2.69-1.42.64-3.11.96-5.06.96v-.02h0Z"/>
    <path d="M338.18,154.03c-1.89,0-3.53-.38-4.92-1.15s-2.46-1.92-3.22-3.46c-.75-1.54-1.13-3.47-1.13-5.81v-14.35h4.8v13.82c0,2.27.5,3.98,1.49,5.14.99,1.15,2.42,1.73,4.27,1.73,1.25,0,2.38-.3,3.38-.91,1.01-.61,1.8-1.49,2.38-2.64s.86-2.56.86-4.22v-12.91h4.8v24.19h-4.27l-.34-4.13c-.74,1.47-1.81,2.62-3.22,3.46-1.41.83-3.04,1.25-4.9,1.25h.02Z"/>
    <path d="M356.08,153.45v-24.19h4.32l.43,4.56c.54-1.09,1.25-2.01,2.11-2.76s1.88-1.34,3.05-1.75c1.17-.42,2.5-.62,4.01-.62v5.09h-1.73c-.99,0-1.94.12-2.83.36-.9.24-1.69.65-2.38,1.22-.69.58-1.22,1.36-1.61,2.35-.38.99-.58,2.22-.58,3.7v12.05h-4.8,0Z"/>
    <path d="M383.2,154.03c-2.3,0-4.35-.53-6.14-1.58-1.79-1.06-3.19-2.53-4.2-4.42s-1.51-4.08-1.51-6.58.5-4.79,1.51-6.7,2.41-3.39,4.2-4.46,3.87-1.61,6.24-1.61,4.4.53,6.1,1.58c1.7,1.06,3.01,2.46,3.94,4.2.93,1.74,1.39,3.67,1.39,5.78,0,.32,0,.67-.02,1.03-.02.37-.04.78-.07,1.22h-19.78v-3.41h15.07c-.1-2.02-.77-3.59-2.02-4.73s-2.8-1.7-4.66-1.7c-1.31,0-2.51.3-3.6.89s-1.96,1.46-2.62,2.59c-.66,1.14-.98,2.57-.98,4.3v1.34c0,1.79.33,3.3.98,4.54.66,1.23,1.53,2.16,2.62,2.78s2.27.94,3.55.94c1.54,0,2.8-.34,3.79-1.01.99-.67,1.73-1.58,2.21-2.74h4.8c-.42,1.47-1.12,2.79-2.11,3.96s-2.22,2.09-3.67,2.76-3.13,1.01-5.02,1.01v.02h0Z"/>
  </g>
  <rect id="tick-right2" x="42.35" y="16.88" width="4.81" height="34.5"/>
  <rect id="tick-right3" x="31.76" y="17.16" width="4.81" height="17.33"/>
  <rect id="uuid-06a55403-63cd-4f1c-805b-46f138fe1c58" x="20.8" y="16.88" width="4.81" height="34.5"/>
  <g>
    <path d="M95.39,51.54c-3.17,0-5.94-.72-8.3-2.16-2.37-1.44-4.21-3.46-5.52-6.05s-1.97-5.62-1.97-9.07.66-6.45,1.99-9.07c1.33-2.62,3.23-4.68,5.71-6.17,2.48-1.49,5.42-2.23,8.81-2.23,3.81,0,6.99.92,9.55,2.76,2.56,1.84,4.21,4.39,4.94,7.66h-5.47c-.48-1.86-1.49-3.32-3.02-4.39-1.54-1.07-3.55-1.61-6.05-1.61s-4.42.53-6.17,1.58c-1.74,1.06-3.08,2.56-4.01,4.51s-1.39,4.27-1.39,6.96.46,5.06,1.39,7.01,2.24,3.44,3.94,4.46c1.7,1.02,3.65,1.54,5.86,1.54,3.39,0,5.94-.98,7.66-2.93,1.71-1.95,2.71-4.56,3-7.82h-9.26v-3.7h14.11v18.14h-4.37l-.43-5.14c-.77,1.25-1.66,2.3-2.66,3.14-1.01.85-2.18,1.49-3.53,1.92-1.34.43-2.94.65-4.8.65h0Z"/>
    <path d="M126.92,51.54c-2.27,0-4.31-.53-6.12-1.58-1.81-1.06-3.23-2.54-4.27-4.44-1.04-1.9-1.56-4.1-1.56-6.6s.53-4.79,1.58-6.7c1.06-1.9,2.5-3.38,4.32-4.44s3.87-1.58,6.14-1.58,4.35.53,6.14,1.58c1.79,1.06,3.21,2.53,4.25,4.42s1.56,4.11,1.56,6.67-.52,4.78-1.56,6.67-2.47,3.36-4.3,4.42c-1.82,1.06-3.89,1.58-6.19,1.58h0ZM126.92,47.41c1.31,0,2.5-.32,3.58-.96,1.07-.64,1.94-1.59,2.59-2.86.66-1.26.98-2.84.98-4.73s-.32-3.46-.96-4.73c-.64-1.26-1.5-2.22-2.57-2.86-1.07-.64-2.25-.96-3.53-.96s-2.46.32-3.55.96-1.96,1.59-2.62,2.86c-.66,1.26-.98,2.84-.98,4.73s.33,3.46.98,4.73c.66,1.26,1.52,2.22,2.59,2.86s2.23.96,3.48.96h.01Z"/>
    <path d="M154.28,51.54c-2.27,0-4.31-.53-6.12-1.58-1.81-1.06-3.23-2.54-4.27-4.44-1.04-1.9-1.56-4.1-1.56-6.6s.53-4.79,1.58-6.7c1.06-1.9,2.5-3.38,4.32-4.44s3.87-1.58,6.14-1.58,4.35.53,6.14,1.58c1.79,1.06,3.21,2.53,4.25,4.42s1.56,4.11,1.56,6.67-.52,4.78-1.56,6.67-2.47,3.36-4.3,4.42c-1.82,1.06-3.89,1.58-6.19,1.58h0ZM154.28,47.41c1.31,0,2.5-.32,3.58-.96,1.07-.64,1.94-1.59,2.59-2.86.66-1.26.98-2.84.98-4.73s-.32-3.46-.96-4.73c-.64-1.26-1.5-2.22-2.57-2.86-1.07-.64-2.25-.96-3.53-.96s-2.46.32-3.55.96-1.96,1.59-2.62,2.86c-.66,1.26-.98,2.84-.98,4.73s.33,3.46.98,4.73c.66,1.26,1.52,2.22,2.59,2.86,1.07.64,2.23.96,3.48.96h.01Z"/>
    <path d="M181.35,51.54c-2.3,0-4.34-.55-6.1-1.66-1.76-1.1-3.13-2.61-4.1-4.51-.98-1.9-1.46-4.07-1.46-6.5s.49-4.64,1.46-6.53c.98-1.89,2.35-3.38,4.13-4.49,1.78-1.1,3.82-1.66,6.12-1.66,1.89,0,3.55.38,4.99,1.13s2.56,1.82,3.36,3.19v-14.11h4.8v34.56h-4.32l-.48-3.74c-.48.74-1.1,1.43-1.87,2.09s-1.7,1.19-2.78,1.61c-1.09.42-2.34.62-3.74.62h0ZM182.12,47.37c1.5,0,2.83-.35,3.98-1.06s2.04-1.7,2.66-2.98c.62-1.28.94-2.77.94-4.46s-.31-3.18-.94-4.44c-.62-1.26-1.51-2.26-2.66-2.98-1.15-.72-2.48-1.08-3.98-1.08s-2.74.36-3.89,1.08c-1.15.72-2.05,1.71-2.69,2.98-.64,1.26-.96,2.74-.96,4.44s.32,3.18.96,4.46,1.54,2.27,2.69,2.98,2.45,1.06,3.89,1.06Z"/>
    <path d="M210.87,50.96V17.36h5.66l11.38,22.7,11.33-22.7h5.71v33.6h-4.8v-25.2l-10.42,20.5h-3.7l-10.37-20.45v25.15h-4.8,0Z"/>
    <path d="M261.22,51.54c-2.3,0-4.35-.53-6.14-1.58-1.79-1.06-3.19-2.53-4.2-4.42s-1.51-4.08-1.51-6.58.5-4.79,1.51-6.7c1.01-1.9,2.41-3.39,4.2-4.46s3.87-1.61,6.24-1.61,4.4.53,6.1,1.58c1.7,1.06,3.01,2.46,3.94,4.2.93,1.74,1.39,3.67,1.39,5.78,0,.32,0,.67-.02,1.03-.02.37-.04.78-.07,1.22h-19.78v-3.41h15.07c-.1-2.02-.77-3.59-2.02-4.73s-2.8-1.7-4.66-1.7c-1.31,0-2.51.3-3.6.89s-1.96,1.46-2.62,2.59c-.66,1.14-.98,2.57-.98,4.3v1.34c0,1.79.33,3.3.98,4.54.66,1.23,1.53,2.16,2.62,2.78s2.27.94,3.55.94c1.54,0,2.8-.34,3.79-1.01.99-.67,1.73-1.58,2.21-2.74h4.8c-.42,1.47-1.12,2.79-2.11,3.96s-2.22,2.09-3.67,2.76c-1.46.67-3.13,1.01-5.02,1.01v.02h0Z"/>
    <path d="M284.7,51.54c-1.98,0-3.63-.34-4.94-1.01s-2.29-1.58-2.93-2.71c-.64-1.14-.96-2.36-.96-3.67,0-1.6.42-2.97,1.25-4.1.83-1.14,2.02-2.01,3.55-2.62,1.54-.61,3.38-.91,5.52-.91h6.29c0-1.41-.21-2.58-.62-3.5-.42-.93-1.03-1.62-1.85-2.09-.82-.46-1.85-.7-3.1-.7-1.44,0-2.67.34-3.7,1.03-1.02.69-1.66,1.7-1.92,3.05h-4.8c.19-1.7.78-3.14,1.75-4.34.98-1.2,2.23-2.13,3.77-2.78,1.54-.66,3.17-.98,4.9-.98,2.27,0,4.18.4,5.71,1.2,1.54.8,2.7,1.93,3.48,3.38.78,1.46,1.18,3.19,1.18,5.21v14.98h-4.18l-.38-4.08c-.35.64-.77,1.25-1.25,1.82-.48.58-1.05,1.07-1.7,1.49-.66.42-1.41.74-2.26.98-.85.24-1.78.36-2.81.36h0ZM285.61,47.65c1.02,0,1.95-.21,2.78-.62.83-.42,1.54-.98,2.14-1.7.59-.72,1.04-1.54,1.34-2.45s.47-1.85.5-2.81v-.14h-5.71c-1.38,0-2.49.17-3.34.5-.85.34-1.46.79-1.85,1.37-.38.58-.58,1.25-.58,2.02s.18,1.48.55,2.04.9,1,1.61,1.32c.7.32,1.55.48,2.54.48h.02Z"/>
    <path d="M311.38,51.54c-2.05,0-3.84-.34-5.38-1.01s-2.75-1.62-3.65-2.83c-.9-1.22-1.44-2.64-1.63-4.27h4.9c.16.77.47,1.47.94,2.11.46.64,1.1,1.15,1.92,1.54.82.38,1.78.58,2.9.58,1.06,0,1.93-.15,2.62-.46.69-.3,1.19-.72,1.51-1.25s.48-1.1.48-1.7c0-.9-.22-1.58-.65-2.04s-1.07-.83-1.92-1.1c-.85-.27-1.86-.52-3.05-.74-1.12-.19-2.2-.46-3.24-.79-1.04-.34-1.97-.76-2.78-1.27-.82-.51-1.46-1.16-1.94-1.94s-.72-1.75-.72-2.9c0-1.38.37-2.62,1.1-3.72.74-1.1,1.78-1.97,3.14-2.59s2.97-.94,4.82-.94c2.69,0,4.85.64,6.48,1.92s2.59,3.09,2.88,5.42h-4.66c-.13-1.09-.61-1.93-1.44-2.52-.83-.59-1.94-.89-3.31-.89s-2.43.27-3.17.82c-.74.54-1.1,1.26-1.1,2.16,0,.58.21,1.09.62,1.54.42.45,1.03.82,1.85,1.13.82.3,1.82.58,3,.84,1.7.32,3.22.72,4.56,1.2s2.42,1.18,3.22,2.11,1.2,2.26,1.2,3.98c.03,1.5-.34,2.83-1.13,3.98-.78,1.15-1.89,2.05-3.31,2.69-1.42.64-3.11.96-5.06.96v-.02h0Z"/>
    <path d="M334.04,51.54c-1.89,0-3.53-.38-4.92-1.15s-2.46-1.92-3.22-3.46c-.75-1.54-1.13-3.47-1.13-5.81v-14.35h4.8v13.82c0,2.27.5,3.98,1.49,5.14.99,1.15,2.42,1.73,4.27,1.73,1.25,0,2.38-.3,3.38-.91,1.01-.61,1.8-1.49,2.38-2.64s.86-2.56.86-4.22v-12.91h4.8v24.19h-4.27l-.34-4.13c-.74,1.47-1.81,2.62-3.22,3.46-1.41.83-3.04,1.25-4.9,1.25h.02Z"/>
    <path d="M351.94,50.96v-24.19h4.32l.43,4.56c.54-1.09,1.25-2.01,2.11-2.76s1.88-1.34,3.05-1.75c1.17-.42,2.5-.62,4.01-.62v5.09h-1.73c-.99,0-1.94.12-2.83.36-.9.24-1.69.65-2.38,1.22-.69.58-1.22,1.36-1.61,2.35-.38.99-.58,2.22-.58,3.7v12.05h-4.8,0Z"/>
    <path d="M379.06,51.54c-2.3,0-4.35-.53-6.14-1.58-1.79-1.06-3.19-2.53-4.2-4.42s-1.51-4.08-1.51-6.58.5-4.79,1.51-6.7,2.41-3.39,4.2-4.46,3.87-1.61,6.24-1.61,4.4.53,6.1,1.58c1.7,1.06,3.01,2.46,3.94,4.2.93,1.74,1.39,3.67,1.39,5.78,0,.32,0,.67-.02,1.03-.02.37-.04.78-.07,1.22h-19.78v-3.41h15.07c-.1-2.02-.77-3.59-2.02-4.73s-2.8-1.7-4.66-1.7c-1.31,0-2.51.3-3.6.89s-1.96,1.46-2.62,2.59c-.66,1.14-.98,2.57-.98,4.3v1.34c0,1.79.33,3.3.98,4.54.66,1.23,1.53,2.16,2.62,2.78s2.27.94,3.55.94c1.54,0,2.8-.34,3.79-1.01.99-.67,1.73-1.58,2.21-2.74h4.8c-.42,1.47-1.12,2.79-2.11,3.96s-2.22,2.09-3.67,2.76-3.13,1.01-5.02,1.01v.02h0Z"/>
  </g>
  <g id="frame1">
    <path d="M66.85,169.82H1.74v-65.11h65.11v65.11ZM4.54,167.02h59.51v-59.51H4.54v59.51Z"/>
  </g>
  <path id="frame" d="M66.39,429.99H.68v-65.71h65.71v65.71ZM3.52,427.16h60.06v-60.04H3.52v60.06h0v-.02Z"/>
  <g>
    <rect id="tick-left" x="19.05" y="379.89" width="6" height="34.5"/>
    <rect id="tick-right4" data-name="tick-right" x="42.03" y="379.89" width="6" height="34.5"/>
    <rect id="tick-right5" data-name="tick-right" x="30.54" y="379.89" width="6" height="17.94"/>
  </g>
  <text id="wordmark" class="st0" transform="translate(81.11 413.87)"><tspan x="0" y="0">Good Measure</tspan></text>
</svg>